<mxfile host="app.diagrams.net" agent="Mozilla/5.0 (Windows NT 10.0; Win64; x64) AppleWebKit/537.36 (KHTML, like Gecko) Chrome/135.0.0.0 Safari/537.36" version="26.2.14">
  <diagram name="Page-1" id="9PYuxFuRiP1k1_slXpGF">
    <mxGraphModel dx="922" dy="810" grid="1" gridSize="10" guides="1" tooltips="1" connect="1" arrows="1" fold="1" page="1" pageScale="1" pageWidth="850" pageHeight="1100" math="0" shadow="0">
      <root>
        <mxCell id="0" />
        <mxCell id="1" parent="0" />
        <mxCell id="7DeStMm2mlKRKFDFG0CM-24" style="edgeStyle=orthogonalEdgeStyle;shape=link;rounded=0;orthogonalLoop=1;jettySize=auto;html=1;exitX=0.25;exitY=1;exitDx=0;exitDy=0;entryX=0.5;entryY=0;entryDx=0;entryDy=0;width=4;" parent="1" source="cppxRdKY1c74pizGXOIA-1" target="7DeStMm2mlKRKFDFG0CM-11" edge="1">
          <mxGeometry relative="1" as="geometry" />
        </mxCell>
        <mxCell id="7DeStMm2mlKRKFDFG0CM-43" style="edgeStyle=none;shape=link;rounded=0;orthogonalLoop=1;jettySize=auto;html=1;exitX=0;exitY=1;exitDx=0;exitDy=0;width=0;entryX=0.95;entryY=0.511;entryDx=0;entryDy=0;entryPerimeter=0;" parent="1" source="cppxRdKY1c74pizGXOIA-1" target="7DeStMm2mlKRKFDFG0CM-44" edge="1">
          <mxGeometry relative="1" as="geometry">
            <mxPoint x="620" y="580" as="targetPoint" />
          </mxGeometry>
        </mxCell>
        <mxCell id="cppxRdKY1c74pizGXOIA-1" value="Robo" style="rounded=0;whiteSpace=wrap;html=1;" parent="1" vertex="1">
          <mxGeometry x="830" y="420" width="130" height="60" as="geometry" />
        </mxCell>
        <mxCell id="7DeStMm2mlKRKFDFG0CM-34" style="edgeStyle=orthogonalEdgeStyle;shape=link;rounded=0;orthogonalLoop=1;jettySize=auto;html=1;exitX=0.25;exitY=1;exitDx=0;exitDy=0;entryX=0.5;entryY=0;entryDx=0;entryDy=0;" parent="1" source="cppxRdKY1c74pizGXOIA-2" target="7DeStMm2mlKRKFDFG0CM-1" edge="1">
          <mxGeometry relative="1" as="geometry" />
        </mxCell>
        <mxCell id="cppxRdKY1c74pizGXOIA-2" value="usuário" style="rounded=0;whiteSpace=wrap;html=1;" parent="1" vertex="1">
          <mxGeometry x="342.5" y="142" width="130" height="65" as="geometry" />
        </mxCell>
        <mxCell id="7DeStMm2mlKRKFDFG0CM-23" style="edgeStyle=orthogonalEdgeStyle;shape=link;rounded=0;orthogonalLoop=1;jettySize=auto;html=1;exitX=0.25;exitY=1;exitDx=0;exitDy=0;entryX=0.5;entryY=0;entryDx=0;entryDy=0;" parent="1" source="d1ruQ-8fyaiIGcKiA7xt-10" target="7DeStMm2mlKRKFDFG0CM-13" edge="1">
          <mxGeometry relative="1" as="geometry" />
        </mxCell>
        <mxCell id="d1ruQ-8fyaiIGcKiA7xt-10" value="agendamentos" style="shape=process;whiteSpace=wrap;html=1;backgroundOutline=1;" parent="1" vertex="1">
          <mxGeometry x="72.5" y="400" width="165" height="70" as="geometry" />
        </mxCell>
        <mxCell id="d1ruQ-8fyaiIGcKiA7xt-16" value="Pertence/Executa" style="html=1;whiteSpace=wrap;aspect=fixed;shape=isoRectangle;" parent="1" vertex="1">
          <mxGeometry x="400" y="400" width="150" height="90" as="geometry" />
        </mxCell>
        <mxCell id="NYRJeXROjjGhSCPkvIYM-3" value="Gerar/Pertencer" style="html=1;whiteSpace=wrap;aspect=fixed;shape=isoRectangle;" parent="1" vertex="1">
          <mxGeometry x="70" y="130" width="150" height="90" as="geometry" />
        </mxCell>
        <mxCell id="NYRJeXROjjGhSCPkvIYM-8" value="0,N" style="text;html=1;align=center;verticalAlign=middle;resizable=0;points=[];autosize=1;strokeColor=none;fillColor=none;" parent="1" vertex="1">
          <mxGeometry x="145" y="368" width="40" height="30" as="geometry" />
        </mxCell>
        <mxCell id="NYRJeXROjjGhSCPkvIYM-9" value="(1,1)" style="text;html=1;align=center;verticalAlign=middle;resizable=0;points=[];autosize=1;strokeColor=none;fillColor=none;" parent="1" vertex="1">
          <mxGeometry x="297.5" y="177.5" width="50" height="30" as="geometry" />
        </mxCell>
        <mxCell id="NYRJeXROjjGhSCPkvIYM-12" value="0,N" style="text;html=1;align=center;verticalAlign=middle;resizable=0;points=[];autosize=1;strokeColor=none;fillColor=none;" parent="1" vertex="1">
          <mxGeometry x="250" y="450" width="40" height="30" as="geometry" />
        </mxCell>
        <mxCell id="NYRJeXROjjGhSCPkvIYM-14" value="1,N" style="text;html=1;align=center;verticalAlign=middle;resizable=0;points=[];autosize=1;strokeColor=none;fillColor=none;" parent="1" vertex="1">
          <mxGeometry x="790" y="420" width="40" height="30" as="geometry" />
        </mxCell>
        <mxCell id="7DeStMm2mlKRKFDFG0CM-39" style="edgeStyle=orthogonalEdgeStyle;shape=link;rounded=0;orthogonalLoop=1;jettySize=auto;html=1;exitX=0.25;exitY=1;exitDx=0;exitDy=0;entryX=0.5;entryY=0;entryDx=0;entryDy=0;" parent="1" source="3Id7y2MSzYPGMhcLLkv3-3" target="7DeStMm2mlKRKFDFG0CM-7" edge="1">
          <mxGeometry relative="1" as="geometry" />
        </mxCell>
        <mxCell id="3Id7y2MSzYPGMhcLLkv3-3" value="Máquina" style="rounded=0;whiteSpace=wrap;html=1;" parent="1" vertex="1">
          <mxGeometry x="830" y="147.5" width="120" height="60" as="geometry" />
        </mxCell>
        <mxCell id="3Id7y2MSzYPGMhcLLkv3-4" value="Cadastra/Cadastrada" style="html=1;whiteSpace=wrap;aspect=fixed;shape=isoRectangle;" parent="1" vertex="1">
          <mxGeometry x="550" y="130" width="148.34" height="89" as="geometry" />
        </mxCell>
        <mxCell id="3Id7y2MSzYPGMhcLLkv3-6" value="" style="endArrow=none;html=1;rounded=0;exitX=0.995;exitY=0.496;exitDx=0;exitDy=0;exitPerimeter=0;entryX=0;entryY=0.5;entryDx=0;entryDy=0;" parent="1" source="NYRJeXROjjGhSCPkvIYM-3" target="cppxRdKY1c74pizGXOIA-2" edge="1">
          <mxGeometry width="50" height="50" relative="1" as="geometry">
            <mxPoint x="380" y="-80" as="sourcePoint" />
            <mxPoint x="430" y="-130" as="targetPoint" />
          </mxGeometry>
        </mxCell>
        <mxCell id="3Id7y2MSzYPGMhcLLkv3-7" value="" style="endArrow=none;html=1;rounded=0;entryX=0.499;entryY=0.993;entryDx=0;entryDy=0;entryPerimeter=0;exitX=0.41;exitY=0.026;exitDx=0;exitDy=0;exitPerimeter=0;" parent="1" source="d1ruQ-8fyaiIGcKiA7xt-10" target="NYRJeXROjjGhSCPkvIYM-3" edge="1">
          <mxGeometry width="50" height="50" relative="1" as="geometry">
            <mxPoint x="60" y="320" as="sourcePoint" />
            <mxPoint x="110" y="270" as="targetPoint" />
          </mxGeometry>
        </mxCell>
        <mxCell id="3Id7y2MSzYPGMhcLLkv3-8" value="" style="endArrow=none;html=1;rounded=0;entryX=0;entryY=0.5;entryDx=0;entryDy=0;exitX=0.953;exitY=0.531;exitDx=0;exitDy=0;exitPerimeter=0;" parent="1" source="d1ruQ-8fyaiIGcKiA7xt-16" target="cppxRdKY1c74pizGXOIA-1" edge="1">
          <mxGeometry width="50" height="50" relative="1" as="geometry">
            <mxPoint x="380" y="320" as="sourcePoint" />
            <mxPoint x="430" y="270" as="targetPoint" />
          </mxGeometry>
        </mxCell>
        <mxCell id="3Id7y2MSzYPGMhcLLkv3-10" value="" style="endArrow=none;html=1;rounded=0;exitX=0.992;exitY=0.631;exitDx=0;exitDy=0;exitPerimeter=0;entryX=-0.013;entryY=0.478;entryDx=0;entryDy=0;entryPerimeter=0;" parent="1" source="d1ruQ-8fyaiIGcKiA7xt-10" target="d1ruQ-8fyaiIGcKiA7xt-16" edge="1">
          <mxGeometry width="50" height="50" relative="1" as="geometry">
            <mxPoint x="390" y="330" as="sourcePoint" />
            <mxPoint x="410" y="320" as="targetPoint" />
            <Array as="points" />
          </mxGeometry>
        </mxCell>
        <mxCell id="3Id7y2MSzYPGMhcLLkv3-11" value="" style="endArrow=none;html=1;rounded=0;exitX=0.542;exitY=0.051;exitDx=0;exitDy=0;exitPerimeter=0;entryX=0.5;entryY=1;entryDx=0;entryDy=0;" parent="1" source="d1ruQ-8fyaiIGcKiA7xt-16" target="cppxRdKY1c74pizGXOIA-2" edge="1">
          <mxGeometry width="50" height="50" relative="1" as="geometry">
            <mxPoint x="390" y="330" as="sourcePoint" />
            <mxPoint x="360" y="230" as="targetPoint" />
          </mxGeometry>
        </mxCell>
        <mxCell id="3Id7y2MSzYPGMhcLLkv3-12" value="" style="endArrow=none;html=1;rounded=0;entryX=0.015;entryY=0.485;entryDx=0;entryDy=0;entryPerimeter=0;" parent="1" source="cppxRdKY1c74pizGXOIA-2" target="3Id7y2MSzYPGMhcLLkv3-4" edge="1">
          <mxGeometry width="50" height="50" relative="1" as="geometry">
            <mxPoint x="470" y="173" as="sourcePoint" />
            <mxPoint x="450" y="290" as="targetPoint" />
          </mxGeometry>
        </mxCell>
        <mxCell id="3Id7y2MSzYPGMhcLLkv3-13" value="" style="endArrow=none;html=1;rounded=0;exitX=0;exitY=0.5;exitDx=0;exitDy=0;" parent="1" source="3Id7y2MSzYPGMhcLLkv3-3" edge="1">
          <mxGeometry width="50" height="50" relative="1" as="geometry">
            <mxPoint x="410" y="350" as="sourcePoint" />
            <mxPoint x="699" y="178" as="targetPoint" />
          </mxGeometry>
        </mxCell>
        <mxCell id="3Id7y2MSzYPGMhcLLkv3-14" value="Executa" style="html=1;whiteSpace=wrap;aspect=fixed;shape=isoRectangle;" parent="1" vertex="1">
          <mxGeometry x="850" y="290" width="80" height="48" as="geometry" />
        </mxCell>
        <mxCell id="3Id7y2MSzYPGMhcLLkv3-15" value="" style="endArrow=none;html=1;rounded=0;entryX=0.5;entryY=1;entryDx=0;entryDy=0;exitX=0.51;exitY=0.079;exitDx=0;exitDy=0;exitPerimeter=0;" parent="1" source="3Id7y2MSzYPGMhcLLkv3-14" target="3Id7y2MSzYPGMhcLLkv3-3" edge="1">
          <mxGeometry width="50" height="50" relative="1" as="geometry">
            <mxPoint x="590" y="290" as="sourcePoint" />
            <mxPoint x="640" y="240" as="targetPoint" />
          </mxGeometry>
        </mxCell>
        <mxCell id="3Id7y2MSzYPGMhcLLkv3-17" value="" style="endArrow=none;html=1;rounded=0;exitX=0.5;exitY=0;exitDx=0;exitDy=0;entryX=0.55;entryY=0.888;entryDx=0;entryDy=0;entryPerimeter=0;" parent="1" source="cppxRdKY1c74pizGXOIA-1" target="3Id7y2MSzYPGMhcLLkv3-14" edge="1">
          <mxGeometry width="50" height="50" relative="1" as="geometry">
            <mxPoint x="680" y="390" as="sourcePoint" />
            <mxPoint x="730" y="339" as="targetPoint" />
          </mxGeometry>
        </mxCell>
        <mxCell id="3Id7y2MSzYPGMhcLLkv3-19" value="0,N" style="text;html=1;align=center;verticalAlign=middle;resizable=0;points=[];autosize=1;strokeColor=none;fillColor=none;" parent="1" vertex="1">
          <mxGeometry x="790" y="450" width="40" height="30" as="geometry" />
        </mxCell>
        <mxCell id="3Id7y2MSzYPGMhcLLkv3-20" value="1,N" style="text;html=1;align=center;verticalAlign=middle;resizable=0;points=[];autosize=1;strokeColor=none;fillColor=none;" parent="1" vertex="1">
          <mxGeometry x="790" y="177.5" width="40" height="30" as="geometry" />
        </mxCell>
        <mxCell id="3Id7y2MSzYPGMhcLLkv3-22" value="1,N" style="text;html=1;align=center;verticalAlign=middle;resizable=0;points=[];autosize=1;strokeColor=none;fillColor=none;" parent="1" vertex="1">
          <mxGeometry x="470" y="180" width="40" height="30" as="geometry" />
        </mxCell>
        <mxCell id="3Id7y2MSzYPGMhcLLkv3-23" value="0,N" style="text;html=1;align=center;verticalAlign=middle;resizable=0;points=[];autosize=1;strokeColor=none;fillColor=none;" parent="1" vertex="1">
          <mxGeometry x="900" y="348" width="40" height="30" as="geometry" />
        </mxCell>
        <mxCell id="3Id7y2MSzYPGMhcLLkv3-24" value="1,1" style="text;html=1;align=center;verticalAlign=middle;resizable=0;points=[];autosize=1;strokeColor=none;fillColor=none;" parent="1" vertex="1">
          <mxGeometry x="890" y="208" width="40" height="30" as="geometry" />
        </mxCell>
        <mxCell id="3Id7y2MSzYPGMhcLLkv3-25" value="1,N" style="text;html=1;align=center;verticalAlign=middle;resizable=0;points=[];autosize=1;strokeColor=none;fillColor=none;" parent="1" vertex="1">
          <mxGeometry x="420" y="210" width="40" height="30" as="geometry" />
        </mxCell>
        <mxCell id="7DeStMm2mlKRKFDFG0CM-35" style="edgeStyle=orthogonalEdgeStyle;shape=link;rounded=0;orthogonalLoop=1;jettySize=auto;html=1;entryX=0.5;entryY=0;entryDx=0;entryDy=0;" parent="1" source="7DeStMm2mlKRKFDFG0CM-1" target="7DeStMm2mlKRKFDFG0CM-2" edge="1">
          <mxGeometry relative="1" as="geometry" />
        </mxCell>
        <mxCell id="7DeStMm2mlKRKFDFG0CM-1" value="login" style="ellipse;whiteSpace=wrap;html=1;" parent="1" vertex="1">
          <mxGeometry x="340" y="213" width="50" height="17" as="geometry" />
        </mxCell>
        <mxCell id="7DeStMm2mlKRKFDFG0CM-36" style="edgeStyle=orthogonalEdgeStyle;shape=link;rounded=0;orthogonalLoop=1;jettySize=auto;html=1;entryX=0.5;entryY=0;entryDx=0;entryDy=0;" parent="1" source="7DeStMm2mlKRKFDFG0CM-2" target="7DeStMm2mlKRKFDFG0CM-3" edge="1">
          <mxGeometry relative="1" as="geometry" />
        </mxCell>
        <mxCell id="7DeStMm2mlKRKFDFG0CM-2" value="senha" style="ellipse;whiteSpace=wrap;html=1;" parent="1" vertex="1">
          <mxGeometry x="340" y="253" width="50" height="20" as="geometry" />
        </mxCell>
        <mxCell id="7DeStMm2mlKRKFDFG0CM-37" style="edgeStyle=orthogonalEdgeStyle;shape=link;rounded=0;orthogonalLoop=1;jettySize=auto;html=1;entryX=0.5;entryY=0;entryDx=0;entryDy=0;" parent="1" source="7DeStMm2mlKRKFDFG0CM-3" target="7DeStMm2mlKRKFDFG0CM-4" edge="1">
          <mxGeometry relative="1" as="geometry" />
        </mxCell>
        <mxCell id="7DeStMm2mlKRKFDFG0CM-3" value="departamento" style="ellipse;whiteSpace=wrap;html=1;" parent="1" vertex="1">
          <mxGeometry x="342.5" y="290" width="50" height="20" as="geometry" />
        </mxCell>
        <mxCell id="7DeStMm2mlKRKFDFG0CM-38" style="edgeStyle=orthogonalEdgeStyle;shape=link;rounded=0;orthogonalLoop=1;jettySize=auto;html=1;entryX=0.5;entryY=0;entryDx=0;entryDy=0;" parent="1" source="7DeStMm2mlKRKFDFG0CM-4" target="7DeStMm2mlKRKFDFG0CM-5" edge="1">
          <mxGeometry relative="1" as="geometry" />
        </mxCell>
        <mxCell id="7DeStMm2mlKRKFDFG0CM-4" value="hierarquia" style="ellipse;whiteSpace=wrap;html=1;" parent="1" vertex="1">
          <mxGeometry x="342.5" y="328" width="50" height="20" as="geometry" />
        </mxCell>
        <mxCell id="7DeStMm2mlKRKFDFG0CM-5" value="whatsapp" style="ellipse;whiteSpace=wrap;html=1;" parent="1" vertex="1">
          <mxGeometry x="340" y="368" width="50" height="20" as="geometry" />
        </mxCell>
        <mxCell id="7DeStMm2mlKRKFDFG0CM-41" style="edgeStyle=orthogonalEdgeStyle;shape=link;rounded=0;orthogonalLoop=1;jettySize=auto;html=1;entryX=0.5;entryY=0;entryDx=0;entryDy=0;" parent="1" source="7DeStMm2mlKRKFDFG0CM-7" target="7DeStMm2mlKRKFDFG0CM-8" edge="1">
          <mxGeometry relative="1" as="geometry" />
        </mxCell>
        <mxCell id="7DeStMm2mlKRKFDFG0CM-7" value="nome" style="ellipse;whiteSpace=wrap;html=1;" parent="1" vertex="1">
          <mxGeometry x="830" y="220" width="50" height="20" as="geometry" />
        </mxCell>
        <mxCell id="7DeStMm2mlKRKFDFG0CM-8" value="ip" style="ellipse;whiteSpace=wrap;html=1;" parent="1" vertex="1">
          <mxGeometry x="830" y="253" width="50" height="20" as="geometry" />
        </mxCell>
        <mxCell id="7DeStMm2mlKRKFDFG0CM-28" style="edgeStyle=orthogonalEdgeStyle;shape=link;rounded=0;orthogonalLoop=1;jettySize=auto;html=1;entryX=0.5;entryY=1;entryDx=0;entryDy=0;" parent="1" source="7DeStMm2mlKRKFDFG0CM-9" target="7DeStMm2mlKRKFDFG0CM-11" edge="1">
          <mxGeometry relative="1" as="geometry" />
        </mxCell>
        <mxCell id="7DeStMm2mlKRKFDFG0CM-31" value="" style="edgeStyle=orthogonalEdgeStyle;shape=link;rounded=0;orthogonalLoop=1;jettySize=auto;html=1;width=-2;" parent="1" source="7DeStMm2mlKRKFDFG0CM-9" target="7DeStMm2mlKRKFDFG0CM-11" edge="1">
          <mxGeometry relative="1" as="geometry" />
        </mxCell>
        <mxCell id="7DeStMm2mlKRKFDFG0CM-9" value="nome" style="ellipse;whiteSpace=wrap;html=1;" parent="1" vertex="1">
          <mxGeometry x="840" y="540" width="50" height="20" as="geometry" />
        </mxCell>
        <mxCell id="7DeStMm2mlKRKFDFG0CM-32" style="edgeStyle=orthogonalEdgeStyle;shape=link;rounded=0;orthogonalLoop=1;jettySize=auto;html=1;entryX=0.5;entryY=1;entryDx=0;entryDy=0;width=0;" parent="1" source="7DeStMm2mlKRKFDFG0CM-10" target="7DeStMm2mlKRKFDFG0CM-9" edge="1">
          <mxGeometry relative="1" as="geometry" />
        </mxCell>
        <mxCell id="7DeStMm2mlKRKFDFG0CM-10" value="caminho" style="ellipse;whiteSpace=wrap;html=1;" parent="1" vertex="1">
          <mxGeometry x="840" y="600" width="50" height="20" as="geometry" />
        </mxCell>
        <mxCell id="7DeStMm2mlKRKFDFG0CM-11" value="id_robo" style="ellipse;whiteSpace=wrap;html=1;" parent="1" vertex="1">
          <mxGeometry x="840" y="490" width="50" height="20" as="geometry" />
        </mxCell>
        <mxCell id="7DeStMm2mlKRKFDFG0CM-22" style="edgeStyle=orthogonalEdgeStyle;shape=link;rounded=0;orthogonalLoop=1;jettySize=auto;html=1;exitX=0.5;exitY=1;exitDx=0;exitDy=0;entryX=0.5;entryY=0;entryDx=0;entryDy=0;" parent="1" source="7DeStMm2mlKRKFDFG0CM-13" target="7DeStMm2mlKRKFDFG0CM-14" edge="1">
          <mxGeometry relative="1" as="geometry" />
        </mxCell>
        <mxCell id="7DeStMm2mlKRKFDFG0CM-13" value="id_agendamento" style="ellipse;whiteSpace=wrap;html=1;" parent="1" vertex="1">
          <mxGeometry x="80" y="480" width="50" height="20" as="geometry" />
        </mxCell>
        <mxCell id="7DeStMm2mlKRKFDFG0CM-21" style="edgeStyle=orthogonalEdgeStyle;shape=link;rounded=0;orthogonalLoop=1;jettySize=auto;html=1;exitX=0.5;exitY=1;exitDx=0;exitDy=0;entryX=0.5;entryY=0;entryDx=0;entryDy=0;" parent="1" source="7DeStMm2mlKRKFDFG0CM-14" target="7DeStMm2mlKRKFDFG0CM-15" edge="1">
          <mxGeometry relative="1" as="geometry" />
        </mxCell>
        <mxCell id="7DeStMm2mlKRKFDFG0CM-14" value="data/hora agendamento&lt;div&gt;&lt;br&gt;&lt;/div&gt;" style="ellipse;whiteSpace=wrap;html=1;" parent="1" vertex="1">
          <mxGeometry x="55" y="510" width="90" height="40" as="geometry" />
        </mxCell>
        <mxCell id="7DeStMm2mlKRKFDFG0CM-20" style="edgeStyle=orthogonalEdgeStyle;shape=link;rounded=0;orthogonalLoop=1;jettySize=auto;html=1;exitX=0.5;exitY=1;exitDx=0;exitDy=0;entryX=0.5;entryY=0;entryDx=0;entryDy=0;" parent="1" source="7DeStMm2mlKRKFDFG0CM-15" target="7DeStMm2mlKRKFDFG0CM-16" edge="1">
          <mxGeometry relative="1" as="geometry" />
        </mxCell>
        <mxCell id="7DeStMm2mlKRKFDFG0CM-15" value="data/hora execução" style="ellipse;whiteSpace=wrap;html=1;" parent="1" vertex="1">
          <mxGeometry x="55" y="560" width="90" height="50" as="geometry" />
        </mxCell>
        <mxCell id="7DeStMm2mlKRKFDFG0CM-16" value="&lt;div&gt;id robo&lt;/div&gt;" style="ellipse;whiteSpace=wrap;html=1;" parent="1" vertex="1">
          <mxGeometry x="60" y="620" width="80" height="40" as="geometry" />
        </mxCell>
        <mxCell id="7DeStMm2mlKRKFDFG0CM-19" style="edgeStyle=orthogonalEdgeStyle;shape=link;rounded=0;orthogonalLoop=1;jettySize=auto;html=1;exitX=0.5;exitY=0;exitDx=0;exitDy=0;entryX=0.5;entryY=1;entryDx=0;entryDy=0;" parent="1" source="7DeStMm2mlKRKFDFG0CM-17" target="7DeStMm2mlKRKFDFG0CM-16" edge="1">
          <mxGeometry relative="1" as="geometry" />
        </mxCell>
        <mxCell id="7DeStMm2mlKRKFDFG0CM-17" value="recorrência" style="ellipse;whiteSpace=wrap;html=1;" parent="1" vertex="1">
          <mxGeometry x="50" y="680" width="100" height="30" as="geometry" />
        </mxCell>
        <mxCell id="7DeStMm2mlKRKFDFG0CM-45" style="edgeStyle=none;shape=link;rounded=0;orthogonalLoop=1;jettySize=auto;html=1;width=0;entryX=1;entryY=0.5;entryDx=0;entryDy=0;exitX=0.013;exitY=0.456;exitDx=0;exitDy=0;exitPerimeter=0;" parent="1" source="7DeStMm2mlKRKFDFG0CM-44" target="7DeStMm2mlKRKFDFG0CM-46" edge="1">
          <mxGeometry relative="1" as="geometry">
            <mxPoint x="370" y="575" as="targetPoint" />
          </mxGeometry>
        </mxCell>
        <mxCell id="7DeStMm2mlKRKFDFG0CM-44" value="Gera" style="html=1;whiteSpace=wrap;aspect=fixed;shape=isoRectangle;" parent="1" vertex="1">
          <mxGeometry x="480" y="585" width="150" height="90" as="geometry" />
        </mxCell>
        <mxCell id="7DeStMm2mlKRKFDFG0CM-46" value="Execução" style="rounded=0;whiteSpace=wrap;html=1;" parent="1" vertex="1">
          <mxGeometry x="235" y="542.5" width="130" height="65" as="geometry" />
        </mxCell>
        <mxCell id="7DeStMm2mlKRKFDFG0CM-47" style="edgeStyle=orthogonalEdgeStyle;shape=link;rounded=0;orthogonalLoop=1;jettySize=auto;html=1;exitX=0.5;exitY=1;exitDx=0;exitDy=0;entryX=0.5;entryY=0;entryDx=0;entryDy=0;" parent="1" source="7DeStMm2mlKRKFDFG0CM-48" target="7DeStMm2mlKRKFDFG0CM-50" edge="1">
          <mxGeometry relative="1" as="geometry" />
        </mxCell>
        <mxCell id="7DeStMm2mlKRKFDFG0CM-55" style="edgeStyle=none;shape=link;rounded=0;orthogonalLoop=1;jettySize=auto;html=1;width=1;" parent="1" source="7DeStMm2mlKRKFDFG0CM-48" target="7DeStMm2mlKRKFDFG0CM-46" edge="1">
          <mxGeometry relative="1" as="geometry" />
        </mxCell>
        <mxCell id="7DeStMm2mlKRKFDFG0CM-48" value="PWID" style="ellipse;whiteSpace=wrap;html=1;" parent="1" vertex="1">
          <mxGeometry x="237.5" y="620" width="50" height="20" as="geometry" />
        </mxCell>
        <mxCell id="7DeStMm2mlKRKFDFG0CM-68" style="edgeStyle=none;shape=link;rounded=0;orthogonalLoop=1;jettySize=auto;html=1;exitX=0.5;exitY=1;exitDx=0;exitDy=0;width=1;" parent="1" source="7DeStMm2mlKRKFDFG0CM-50" target="7DeStMm2mlKRKFDFG0CM-67" edge="1">
          <mxGeometry relative="1" as="geometry" />
        </mxCell>
        <mxCell id="7DeStMm2mlKRKFDFG0CM-50" value="data/hora execução" style="ellipse;whiteSpace=wrap;html=1;" parent="1" vertex="1">
          <mxGeometry x="212.5" y="650" width="90" height="40" as="geometry" />
        </mxCell>
        <mxCell id="7DeStMm2mlKRKFDFG0CM-51" style="edgeStyle=orthogonalEdgeStyle;shape=link;rounded=0;orthogonalLoop=1;jettySize=auto;html=1;exitX=0.5;exitY=1;exitDx=0;exitDy=0;entryX=0.5;entryY=0;entryDx=0;entryDy=0;width=1;" parent="1" source="7DeStMm2mlKRKFDFG0CM-52" target="7DeStMm2mlKRKFDFG0CM-53" edge="1">
          <mxGeometry relative="1" as="geometry" />
        </mxCell>
        <mxCell id="7DeStMm2mlKRKFDFG0CM-52" value="log mesage" style="ellipse;whiteSpace=wrap;html=1;" parent="1" vertex="1">
          <mxGeometry x="212.5" y="760" width="90" height="50" as="geometry" />
        </mxCell>
        <mxCell id="7DeStMm2mlKRKFDFG0CM-53" value="&lt;div&gt;log level&lt;/div&gt;" style="ellipse;whiteSpace=wrap;html=1;" parent="1" vertex="1">
          <mxGeometry x="217.5" y="830" width="80" height="40" as="geometry" />
        </mxCell>
        <mxCell id="7DeStMm2mlKRKFDFG0CM-54" style="edgeStyle=orthogonalEdgeStyle;shape=link;rounded=0;orthogonalLoop=1;jettySize=auto;html=1;exitX=0.5;exitY=0;exitDx=0;exitDy=0;entryX=0.5;entryY=1;entryDx=0;entryDy=0;width=-1;" parent="1" source="7DeStMm2mlKRKFDFG0CM-64" target="7DeStMm2mlKRKFDFG0CM-53" edge="1">
          <mxGeometry relative="1" as="geometry">
            <mxPoint x="257.5" y="820" as="sourcePoint" />
          </mxGeometry>
        </mxCell>
        <mxCell id="7DeStMm2mlKRKFDFG0CM-64" value="Conclusão exec" style="ellipse;whiteSpace=wrap;html=1;" parent="1" vertex="1">
          <mxGeometry x="217.5" y="890" width="80" height="40" as="geometry" />
        </mxCell>
        <mxCell id="7DeStMm2mlKRKFDFG0CM-65" value="0,1" style="text;html=1;align=center;verticalAlign=middle;resizable=0;points=[];autosize=1;strokeColor=none;fillColor=none;" parent="1" vertex="1">
          <mxGeometry x="360" y="550" width="40" height="30" as="geometry" />
        </mxCell>
        <mxCell id="7DeStMm2mlKRKFDFG0CM-66" value="1,1" style="text;html=1;align=center;verticalAlign=middle;resizable=0;points=[];autosize=1;strokeColor=none;fillColor=none;" parent="1" vertex="1">
          <mxGeometry x="800" y="485" width="40" height="30" as="geometry" />
        </mxCell>
        <mxCell id="7DeStMm2mlKRKFDFG0CM-69" style="edgeStyle=none;shape=link;rounded=0;orthogonalLoop=1;jettySize=auto;html=1;entryX=0.5;entryY=0;entryDx=0;entryDy=0;width=-1;" parent="1" source="7DeStMm2mlKRKFDFG0CM-67" target="7DeStMm2mlKRKFDFG0CM-52" edge="1">
          <mxGeometry relative="1" as="geometry" />
        </mxCell>
        <mxCell id="7DeStMm2mlKRKFDFG0CM-67" value="data/hora fim_execução" style="ellipse;whiteSpace=wrap;html=1;" parent="1" vertex="1">
          <mxGeometry x="212.5" y="700" width="90" height="40" as="geometry" />
        </mxCell>
        <mxCell id="lG4Z30YDpXS4UT8D76S--1" value="Table" style="shape=table;startSize=30;container=1;collapsible=1;childLayout=tableLayout;fixedRows=1;rowLines=0;fontStyle=1;align=center;resizeLast=1;html=1;" parent="1" vertex="1">
          <mxGeometry x="1060" y="273" width="180" height="150" as="geometry" />
        </mxCell>
        <mxCell id="lG4Z30YDpXS4UT8D76S--2" value="" style="shape=tableRow;horizontal=0;startSize=0;swimlaneHead=0;swimlaneBody=0;fillColor=none;collapsible=0;dropTarget=0;points=[[0,0.5],[1,0.5]];portConstraint=eastwest;top=0;left=0;right=0;bottom=1;" parent="lG4Z30YDpXS4UT8D76S--1" vertex="1">
          <mxGeometry y="30" width="180" height="30" as="geometry" />
        </mxCell>
        <mxCell id="lG4Z30YDpXS4UT8D76S--3" value="PK" style="shape=partialRectangle;connectable=0;fillColor=none;top=0;left=0;bottom=0;right=0;fontStyle=1;overflow=hidden;whiteSpace=wrap;html=1;" parent="lG4Z30YDpXS4UT8D76S--2" vertex="1">
          <mxGeometry width="30" height="30" as="geometry">
            <mxRectangle width="30" height="30" as="alternateBounds" />
          </mxGeometry>
        </mxCell>
        <mxCell id="lG4Z30YDpXS4UT8D76S--4" value="UniqueID" style="shape=partialRectangle;connectable=0;fillColor=none;top=0;left=0;bottom=0;right=0;align=left;spacingLeft=6;fontStyle=5;overflow=hidden;whiteSpace=wrap;html=1;" parent="lG4Z30YDpXS4UT8D76S--2" vertex="1">
          <mxGeometry x="30" width="150" height="30" as="geometry">
            <mxRectangle width="150" height="30" as="alternateBounds" />
          </mxGeometry>
        </mxCell>
        <mxCell id="lG4Z30YDpXS4UT8D76S--5" value="" style="shape=tableRow;horizontal=0;startSize=0;swimlaneHead=0;swimlaneBody=0;fillColor=none;collapsible=0;dropTarget=0;points=[[0,0.5],[1,0.5]];portConstraint=eastwest;top=0;left=0;right=0;bottom=0;" parent="lG4Z30YDpXS4UT8D76S--1" vertex="1">
          <mxGeometry y="60" width="180" height="30" as="geometry" />
        </mxCell>
        <mxCell id="lG4Z30YDpXS4UT8D76S--6" value="" style="shape=partialRectangle;connectable=0;fillColor=none;top=0;left=0;bottom=0;right=0;editable=1;overflow=hidden;whiteSpace=wrap;html=1;" parent="lG4Z30YDpXS4UT8D76S--5" vertex="1">
          <mxGeometry width="30" height="30" as="geometry">
            <mxRectangle width="30" height="30" as="alternateBounds" />
          </mxGeometry>
        </mxCell>
        <mxCell id="lG4Z30YDpXS4UT8D76S--7" value="Row 1" style="shape=partialRectangle;connectable=0;fillColor=none;top=0;left=0;bottom=0;right=0;align=left;spacingLeft=6;overflow=hidden;whiteSpace=wrap;html=1;" parent="lG4Z30YDpXS4UT8D76S--5" vertex="1">
          <mxGeometry x="30" width="150" height="30" as="geometry">
            <mxRectangle width="150" height="30" as="alternateBounds" />
          </mxGeometry>
        </mxCell>
        <mxCell id="lG4Z30YDpXS4UT8D76S--8" value="" style="shape=tableRow;horizontal=0;startSize=0;swimlaneHead=0;swimlaneBody=0;fillColor=none;collapsible=0;dropTarget=0;points=[[0,0.5],[1,0.5]];portConstraint=eastwest;top=0;left=0;right=0;bottom=0;" parent="lG4Z30YDpXS4UT8D76S--1" vertex="1">
          <mxGeometry y="90" width="180" height="30" as="geometry" />
        </mxCell>
        <mxCell id="lG4Z30YDpXS4UT8D76S--9" value="" style="shape=partialRectangle;connectable=0;fillColor=none;top=0;left=0;bottom=0;right=0;editable=1;overflow=hidden;whiteSpace=wrap;html=1;" parent="lG4Z30YDpXS4UT8D76S--8" vertex="1">
          <mxGeometry width="30" height="30" as="geometry">
            <mxRectangle width="30" height="30" as="alternateBounds" />
          </mxGeometry>
        </mxCell>
        <mxCell id="lG4Z30YDpXS4UT8D76S--10" value="Row 2" style="shape=partialRectangle;connectable=0;fillColor=none;top=0;left=0;bottom=0;right=0;align=left;spacingLeft=6;overflow=hidden;whiteSpace=wrap;html=1;" parent="lG4Z30YDpXS4UT8D76S--8" vertex="1">
          <mxGeometry x="30" width="150" height="30" as="geometry">
            <mxRectangle width="150" height="30" as="alternateBounds" />
          </mxGeometry>
        </mxCell>
        <mxCell id="lG4Z30YDpXS4UT8D76S--11" value="" style="shape=tableRow;horizontal=0;startSize=0;swimlaneHead=0;swimlaneBody=0;fillColor=none;collapsible=0;dropTarget=0;points=[[0,0.5],[1,0.5]];portConstraint=eastwest;top=0;left=0;right=0;bottom=0;" parent="lG4Z30YDpXS4UT8D76S--1" vertex="1">
          <mxGeometry y="120" width="180" height="30" as="geometry" />
        </mxCell>
        <mxCell id="lG4Z30YDpXS4UT8D76S--12" value="" style="shape=partialRectangle;connectable=0;fillColor=none;top=0;left=0;bottom=0;right=0;editable=1;overflow=hidden;whiteSpace=wrap;html=1;" parent="lG4Z30YDpXS4UT8D76S--11" vertex="1">
          <mxGeometry width="30" height="30" as="geometry">
            <mxRectangle width="30" height="30" as="alternateBounds" />
          </mxGeometry>
        </mxCell>
        <mxCell id="lG4Z30YDpXS4UT8D76S--13" value="Row 3" style="shape=partialRectangle;connectable=0;fillColor=none;top=0;left=0;bottom=0;right=0;align=left;spacingLeft=6;overflow=hidden;whiteSpace=wrap;html=1;" parent="lG4Z30YDpXS4UT8D76S--11" vertex="1">
          <mxGeometry x="30" width="150" height="30" as="geometry">
            <mxRectangle width="150" height="30" as="alternateBounds" />
          </mxGeometry>
        </mxCell>
      </root>
    </mxGraphModel>
  </diagram>
</mxfile>
